<svg width="70" height="66" fill="none" xmlns="http://www.w3.org/2000/svg"><circle cx="36.571" cy="32.571" r="30.571" stroke="#fff" stroke-width="4"/><path d="M19.136 31.992h1.313c.843 0 1.523.219 2.04.657.51.439.764 1.023.764 1.754 0 .73-.255 1.319-.764 1.764-.509.446-1.189.669-2.04.669h-3.45v-7.672h5.538v1.896h-3.401v.932zm0 3.046h1.23c.508 0 .763-.211.763-.635 0-.212-.068-.373-.203-.483-.135-.109-.322-.164-.56-.164h-1.23v1.282zm11.657 1.798h-2.124v-3.858l-2.948 3.858h-1.659v-7.672h2.136v3.858l2.948-3.858h1.647v7.672zm5.809-4.833v-2.839h2.124v7.672h-2.124v-2.948h-2.35v2.948h-2.137v-7.672h2.136v2.839h2.351zm10.61 3.847c-.852.766-1.886 1.15-3.103 1.15-1.233 0-2.272-.384-3.115-1.15-.843-.775-1.265-1.725-1.265-2.85s.422-2.071 1.265-2.838C41.837 29.387 42.876 29 44.11 29c1.225 0 2.26.387 3.102 1.162.852.767 1.277 1.713 1.277 2.838 0 1.118-.425 2.068-1.276 2.85zm-4.714-1.35c.437.388.974.581 1.61.581.637 0 1.174-.193 1.612-.58.43-.395.644-.896.644-1.502 0-.614-.215-1.11-.644-1.49-.43-.395-.967-.592-1.611-.592-.645 0-1.182.197-1.611.592-.43.38-.645.876-.645 1.49 0 .606.215 1.107.645 1.501zm13.378-5.336H58v7.672h-2.124v-4.132l-2.029 3.08h-.215l-2.017-3.069v4.12H49.48v-7.67h2.136l2.125 3.276 2.136-3.277z" fill="#fff"/><path d="M44.265 41.436a19.5 19.5 0 11.043-16.781" stroke="#fff"/></svg>