<svg width="84" height="87" fill="none" xmlns="http://www.w3.org/2000/svg"><path d="M3.027 23.43c8.88-19.98 37.82-28.51 55.276-20.365-13.965-2.91-36.076 2.329-43.64 27.348C7.1 55.432 44.92 82.197 43.176 82.197c-1.746 0-56.44-22.11-40.148-58.767z" fill="#fff"/><path d="M29.095 30.074c11.391-11.686 28.93-13.04 40.784-2.943-9.022-5.653-23.574-4.793-35.35 10.762-11.774 15.555 8.671 44.17 7.45 43.718-1.222-.452-33.783-30.096-12.884-51.537z" fill="#fff"/><path d="M38.52 50.776C39.71 34.5 52.637 25.654 68.194 26.337 57.602 27.42 44.92 34.484 44.92 53.104c0 18.62 14.546 29.674 14.546 29.674s-22.69-8.145-20.946-32.002z" fill="#fff"/><path d="M59.844 79.334c-7.582-4.008-9.97-14.162-7.45-24.128-.978 7.093.596 16.733 9.462 20.434 8.865 3.7 16.181-3.548 16.181-3.548s-7.08 13.117-18.193 7.242z" fill="#fff"/></svg>