<svg width="15" height="15" fill="none" xmlns="http://www.w3.org/2000/svg"><path d="M14.06 14.627C6.062 14.637-.008 8.698 0 1.031 0 .53.42.122.938.122h2.475a.93.93 0 01.927.774c.163 1.066.483 2.103.951 3.08l.097.201a.622.622 0 01.04.433.641.641 0 01-.256.358c-.767.53-1.06 1.594-.462 2.425a10.918 10.918 0 002.771 2.68c.86.577 1.962.294 2.508-.447a.664.664 0 01.37-.247.684.684 0 01.448.038l.208.092c1.01.454 2.083.764 3.184.921.46.067.801.448.801.898v2.392a.88.88 0 01-.275.642.94.94 0 01-.663.265h-.002z" fill="#fff"/></svg>